<?xml version="1.0" encoding="utf-8"?>
<!-- Generator: Adobe Illustrator 24.1.0, SVG Export Plug-In . SVG Version: 6.00 Build 0)  -->
<svg version="1.1" id="Layer_1" xmlns="http://www.w3.org/2000/svg" xmlns:xlink="http://www.w3.org/1999/xlink" x="0px" y="0px"
	 viewBox="0 0 1789 1024" style="enable-background:new 0 0 1789 1024;" xml:space="preserve">
<style type="text/css">
	.st0{fill:#FFFFFF;}
	.st1{fill:none;stroke:#262626;stroke-width:0.5;stroke-linecap:square;stroke-linejoin:round;stroke-miterlimit:10;}
	.st2{fill:#262626;}
	.st3{font-family:'HelveticaNeue';}
	.st4{font-size:10px;}
	.st5{font-size:11px;}
	.st6{font-family:'HelveticaNeue-Bold';}
	.st7{fill:none;stroke:#FF0000;stroke-width:2;stroke-linejoin:round;stroke-miterlimit:10;}
	.st8{fill:none;stroke:#00FF00;stroke-width:2;stroke-linejoin:round;stroke-miterlimit:10;}
	.st9{fill:none;stroke:#0000FF;stroke-width:2;stroke-linejoin:round;stroke-miterlimit:10;}
	.st10{fill:none;stroke:#FF00FF;stroke-width:2;stroke-linejoin:round;stroke-miterlimit:10;}
	.st11{fill:none;stroke:#FFFF00;stroke-width:2;stroke-linejoin:round;stroke-miterlimit:10;}
	.st12{font-size:9px;}
	.st13{fill:none;stroke:#262626;stroke-width:0.5;stroke-miterlimit:10;}
</style>
<g>
	<g>
		<g>
			<defs>
				<rect id="SVGID_1_" width="1789" height="1024"/>
			</defs>
			<clipPath id="SVGID_2_">
				<use xlink:href="#SVGID_1_"  style="overflow:visible;"/>
			</clipPath>
		</g>
	</g>
	<g>
		<path class="st0" d="M232.5,238.5H513V77H232.5V238.5z"/>
	</g>
	<g>
		<line class="st1" x1="232.5" y1="238.5" x2="513" y2="238.5"/>
		<line class="st1" x1="232.5" y1="238.5" x2="232.5" y2="235.7"/>
		<line class="st1" x1="288.6" y1="238.5" x2="288.6" y2="235.7"/>
		<line class="st1" x1="344.7" y1="238.5" x2="344.7" y2="235.7"/>
		<line class="st1" x1="400.8" y1="238.5" x2="400.8" y2="235.7"/>
		<line class="st1" x1="456.9" y1="238.5" x2="456.9" y2="235.7"/>
		<line class="st1" x1="513" y1="238.5" x2="513" y2="235.7"/>
	</g>
	<g transform="translate(232.5,242.5)">
		<text transform="matrix(1 0 0 1 -3 10)" class="st2 st3 st4">0</text>
	</g>
	<g transform="translate(288.6,242.5)">
		<text transform="matrix(1 0 0 1 -7 10)" class="st2 st3 st4">0.2</text>
	</g>
	<g transform="translate(344.7,242.5)">
		<text transform="matrix(1 0 0 1 -7 10)" class="st2 st3 st4">0.4</text>
	</g>
	<g transform="translate(400.8,242.5)">
		<text transform="matrix(1 0 0 1 -7 10)" class="st2 st3 st4">0.6</text>
	</g>
	<g transform="translate(456.9,242.5)">
		<text transform="matrix(1 0 0 1 -7 10)" class="st2 st3 st4">0.8</text>
	</g>
	<g transform="translate(513,242.5)">
		<text transform="matrix(1 0 0 1 -3 10)" class="st2 st3 st4">1</text>
	</g>
	<g transform="translate(372.7501,256)">
		<text transform="matrix(1 0 0 1 -54.5 11)" class="st2 st3 st5">bin # / number of bins</text>
	</g>
	<g>
		<line class="st1" x1="232.5" y1="238.5" x2="232.5" y2="77"/>
		<line class="st1" x1="232.5" y1="238.5" x2="235.3" y2="238.5"/>
		<line class="st1" x1="232.5" y1="211.6" x2="235.3" y2="211.6"/>
		<line class="st1" x1="232.5" y1="184.7" x2="235.3" y2="184.7"/>
		<line class="st1" x1="232.5" y1="157.8" x2="235.3" y2="157.8"/>
		<line class="st1" x1="232.5" y1="130.8" x2="235.3" y2="130.8"/>
		<line class="st1" x1="232.5" y1="103.9" x2="235.3" y2="103.9"/>
		<line class="st1" x1="232.5" y1="77" x2="235.3" y2="77"/>
	</g>
	<g transform="translate(228.5,238.5)">
		<text transform="matrix(1 0 0 1 -6 3.5)" class="st2 st3 st4">0</text>
	</g>
	<g transform="translate(228.5,211.5833)">
		<text transform="matrix(1 0 0 1 -6 3.5)" class="st2 st3 st4">2</text>
	</g>
	<g transform="translate(228.5,184.6667)">
		<text transform="matrix(1 0 0 1 -6 3.5)" class="st2 st3 st4">4</text>
	</g>
	<g transform="translate(228.5,157.75)">
		<text transform="matrix(1 0 0 1 -6 3.5)" class="st2 st3 st4">6</text>
	</g>
	<g transform="translate(228.5,130.8333)">
		<text transform="matrix(1 0 0 1 -6 3.5)" class="st2 st3 st4">8</text>
	</g>
	<g transform="translate(228.5,103.9167)">
		<text transform="matrix(1 0 0 1 -12 3.5)" class="st2 st3 st4">10</text>
	</g>
	<g transform="translate(228.5,77)">
		<text transform="matrix(1 0 0 1 -12 3.5)" class="st2 st3 st4">12</text>
	</g>
	<g transform="translate(214,157.7499) rotate(-90)">
		<text transform="matrix(1 0 0 1 -28.0001 -3)" class="st2 st3 st5">enrichment</text>
	</g>
	<g transform="translate(372.7504,75.625)">
		<text transform="matrix(1 0 0 1 -56 -3)" class="st6 st5">feature: 10 08 2020: P</text>
	</g>
	<g>
		<path class="st7" d="M232.5,211.6l31.2-13.5l31.2,40.4l31.2-40.4l31.2,26.9l31.2,13.5l31.2-13.5l31.2,13.5h31.2H513"/>
		<path class="st8" d="M232.5,103.9l31.2,134.6h31.2H326h31.2h31.2h31.2h31.2h31.2H513"/>
		<path class="st9" d="M232.5,238.5h31.2h31.2L326,225l31.2-13.5l31.2,13.5l31.2,13.5l31.2-26.9l31.2-26.9l31.2,53.8"/>
		<path class="st10" d="M232.5,238.5h31.2h31.2H326h31.2l31.2-13.5l31.2-53.8l31.2,40.4h31.2l31.2,26.9"/>
		<path class="st11" d="M232.5,238.5h31.2h31.2H326h31.2h31.2l31.2-13.5l31.2-53.8l31.2,26.9L513,225"/>
	</g>
	<g>
		<path class="st0" d="M601.5,238.5h280V77h-280V238.5z"/>
	</g>
	<g>
		<line class="st1" x1="601.5" y1="238.5" x2="881.5" y2="238.5"/>
		<line class="st1" x1="601.5" y1="238.5" x2="601.5" y2="235.7"/>
		<line class="st1" x1="657.5" y1="238.5" x2="657.5" y2="235.7"/>
		<line class="st1" x1="713.5" y1="238.5" x2="713.5" y2="235.7"/>
		<line class="st1" x1="769.5" y1="238.5" x2="769.5" y2="235.7"/>
		<line class="st1" x1="825.5" y1="238.5" x2="825.5" y2="235.7"/>
		<line class="st1" x1="881.5" y1="238.5" x2="881.5" y2="235.7"/>
	</g>
	<g transform="translate(601.5,242.5)">
		<text transform="matrix(1 0 0 1 -3 10)" class="st2 st3 st4">0</text>
	</g>
	<g transform="translate(657.5,242.5)">
		<text transform="matrix(1 0 0 1 -7 10)" class="st2 st3 st4">0.2</text>
	</g>
	<g transform="translate(713.5,242.5)">
		<text transform="matrix(1 0 0 1 -7 10)" class="st2 st3 st4">0.4</text>
	</g>
	<g transform="translate(769.5,242.5)">
		<text transform="matrix(1 0 0 1 -7 10)" class="st2 st3 st4">0.6</text>
	</g>
	<g transform="translate(825.5,242.5)">
		<text transform="matrix(1 0 0 1 -7 10)" class="st2 st3 st4">0.8</text>
	</g>
	<g transform="translate(881.5,242.5)">
		<text transform="matrix(1 0 0 1 -3 10)" class="st2 st3 st4">1</text>
	</g>
	<g transform="translate(741.5001,256)">
		<text transform="matrix(1 0 0 1 -54.5 11)" class="st2 st3 st5">bin # / number of bins</text>
	</g>
	<g>
		<line class="st1" x1="601.5" y1="238.5" x2="601.5" y2="77"/>
		<line class="st1" x1="601.5" y1="238.5" x2="604.3" y2="238.5"/>
		<line class="st1" x1="601.5" y1="206.2" x2="604.3" y2="206.2"/>
		<line class="st1" x1="601.5" y1="173.9" x2="604.3" y2="173.9"/>
		<line class="st1" x1="601.5" y1="141.6" x2="604.3" y2="141.6"/>
		<line class="st1" x1="601.5" y1="109.3" x2="604.3" y2="109.3"/>
		<line class="st1" x1="601.5" y1="77" x2="604.3" y2="77"/>
	</g>
	<g transform="translate(597.5,238.5)">
		<text transform="matrix(1 0 0 1 -6 3.5)" class="st2 st3 st4">0</text>
	</g>
	<g transform="translate(597.5,206.2)">
		<text transform="matrix(1 0 0 1 -6 3.5)" class="st2 st3 st4">2</text>
	</g>
	<g transform="translate(597.5,173.9)">
		<text transform="matrix(1 0 0 1 -6 3.5)" class="st2 st3 st4">4</text>
	</g>
	<g transform="translate(597.5,141.6)">
		<text transform="matrix(1 0 0 1 -6 3.5)" class="st2 st3 st4">6</text>
	</g>
	<g transform="translate(597.5,109.3)">
		<text transform="matrix(1 0 0 1 -6 3.5)" class="st2 st3 st4">8</text>
	</g>
	<g transform="translate(597.5,77)">
		<text transform="matrix(1 0 0 1 -12 3.5)" class="st2 st3 st4">10</text>
	</g>
	<g transform="translate(583,157.7499) rotate(-90)">
		<text transform="matrix(1 0 0 1 -28.0001 -3)" class="st2 st3 st5">enrichment</text>
	</g>
	<g transform="translate(741.5007,75.625)">
		<text transform="matrix(1 0 0 1 -56 -3)" class="st6 st5">feature: 10 08 2020: Y</text>
	</g>
	<g>
		<path class="st7" d="M601.5,77l31.1,161.5h31.1h31.1h31.1h31.1h31.1h31.1h31.1h31.1"/>
		<path class="st8" d="M601.5,238.5l31.1-35.9h31.1l31.1,17.9l31.1,17.9l31.1-53.8l31.1,53.8h31.1h31.1l31.1-17.9"/>
		<path class="st9" d="M601.5,238.5h31.1l31.1-17.9l31.1,17.9h31.1h31.1l31.1-17.9l31.1-35.9l31.1,53.8l31.1-71.8"/>
		<path class="st10" d="M601.5,238.5h31.1h31.1h31.1h31.1h31.1h31.1l31.1-17.9l31.1,17.9l31.1-143.6"/>
		<path class="st11" d="M601.5,238.5h31.1h31.1h31.1h31.1h31.1h31.1l31.1-17.9l31.1,17.9l31.1-143.6"/>
	</g>
	<g>
		<path class="st0" d="M970,238.5h280.5V77H970V238.5z"/>
	</g>
	<g>
		<line class="st1" x1="970" y1="238.5" x2="1250.5" y2="238.5"/>
		<line class="st1" x1="970" y1="238.5" x2="970" y2="235.7"/>
		<line class="st1" x1="1026.1" y1="238.5" x2="1026.1" y2="235.7"/>
		<line class="st1" x1="1082.2" y1="238.5" x2="1082.2" y2="235.7"/>
		<line class="st1" x1="1138.3" y1="238.5" x2="1138.3" y2="235.7"/>
		<line class="st1" x1="1194.4" y1="238.5" x2="1194.4" y2="235.7"/>
		<line class="st1" x1="1250.5" y1="238.5" x2="1250.5" y2="235.7"/>
	</g>
	<g transform="translate(970,242.5)">
		<text transform="matrix(1 0 0 1 -3 10)" class="st2 st3 st4">0</text>
	</g>
	<g transform="translate(1026.1,242.5)">
		<text transform="matrix(1 0 0 1 -7 10)" class="st2 st3 st4">0.2</text>
	</g>
	<g transform="translate(1082.2,242.5)">
		<text transform="matrix(1 0 0 1 -7 10)" class="st2 st3 st4">0.4</text>
	</g>
	<g transform="translate(1138.3,242.5)">
		<text transform="matrix(1 0 0 1 -7 10)" class="st2 st3 st4">0.6</text>
	</g>
	<g transform="translate(1194.4,242.5)">
		<text transform="matrix(1 0 0 1 -7 10)" class="st2 st3 st4">0.8</text>
	</g>
	<g transform="translate(1250.5,242.5)">
		<text transform="matrix(1 0 0 1 -3 10)" class="st2 st3 st4">1</text>
	</g>
	<g transform="translate(1110.2501,256)">
		<text transform="matrix(1 0 0 1 -54.5 11)" class="st2 st3 st5">bin # / number of bins</text>
	</g>
	<g>
		<line class="st1" x1="970" y1="238.5" x2="970" y2="77"/>
		<line class="st1" x1="970" y1="238.5" x2="972.8" y2="238.5"/>
		<line class="st1" x1="970" y1="206.2" x2="972.8" y2="206.2"/>
		<line class="st1" x1="970" y1="173.9" x2="972.8" y2="173.9"/>
		<line class="st1" x1="970" y1="141.6" x2="972.8" y2="141.6"/>
		<line class="st1" x1="970" y1="109.3" x2="972.8" y2="109.3"/>
		<line class="st1" x1="970" y1="77" x2="972.8" y2="77"/>
	</g>
	<g transform="translate(966,238.5)">
		<text transform="matrix(1 0 0 1 -6 3.5)" class="st2 st3 st4">0</text>
	</g>
	<g transform="translate(966,206.2)">
		<text transform="matrix(1 0 0 1 -6 3.5)" class="st2 st3 st4">2</text>
	</g>
	<g transform="translate(966,173.9)">
		<text transform="matrix(1 0 0 1 -6 3.5)" class="st2 st3 st4">4</text>
	</g>
	<g transform="translate(966,141.6)">
		<text transform="matrix(1 0 0 1 -6 3.5)" class="st2 st3 st4">6</text>
	</g>
	<g transform="translate(966,109.3)">
		<text transform="matrix(1 0 0 1 -6 3.5)" class="st2 st3 st4">8</text>
	</g>
	<g transform="translate(966,77)">
		<text transform="matrix(1 0 0 1 -12 3.5)" class="st2 st3 st4">10</text>
	</g>
	<g transform="translate(951.5,157.7499) rotate(-90)">
		<text transform="matrix(1 0 0 1 -28.0001 -3)" class="st2 st3 st5">enrichment</text>
	</g>
	<g transform="translate(1110.2511,75.625)">
		<text transform="matrix(1 0 0 1 -63.5 -3)" class="st6 st5">feature: 10 08 2020: uncl</text>
	</g>
	<g>
		<path class="st7" d="M970,238.5l31.2-80.8h31.2l31.2,80.8h31.2h31.2h31.2h31.2h31.2h31.2"/>
		<path class="st8" d="M970,157.8h31.2l31.2,80.8h31.2h31.2h31.2h31.2h31.2h31.2h31.2"/>
		<path class="st9" d="M970,238.5l31.2-80.8h31.2l31.2,80.8h31.2h31.2h31.2h31.2h31.2h31.2"/>
		<path class="st10" d="M970,238.5h31.2h31.2h31.2h31.2h31.2h31.2h31.2l31.2-80.8h31.2"/>
		<path class="st11" d="M970,238.5h31.2h31.2h31.2h31.2h31.2h31.2h31.2L1219.3,77l31.2,161.5"/>
	</g>
	<g>
		<path class="st0" d="M1243,144V83h-89v61H1243z"/>
	</g>
	<g transform="translate(1191,90.5)">
		<text transform="matrix(1 0 0 1 0 3.5)" class="st3 st12">archetype:1</text>
	</g>
	<g>
		<line class="st7" x1="1158" y1="90.5" x2="1188" y2="90.5"/>
	</g>
	<g transform="translate(1191,102)">
		<text transform="matrix(1 0 0 1 0 3.5)" class="st3 st12">archetype:2</text>
	</g>
	<g>
		<line class="st8" x1="1158" y1="102" x2="1188" y2="102"/>
	</g>
	<g transform="translate(1191,113.5)">
		<text transform="matrix(1 0 0 1 0 3.5)" class="st3 st12">archetype:3</text>
	</g>
	<g>
		<line class="st9" x1="1158" y1="113.5" x2="1188" y2="113.5"/>
	</g>
	<g transform="translate(1191,125)">
		<text transform="matrix(1 0 0 1 0 3.5)" class="st3 st12">archetype:4</text>
	</g>
	<g>
		<line class="st10" x1="1158" y1="125" x2="1188" y2="125"/>
	</g>
	<g transform="translate(1191,136.5)">
		<text transform="matrix(1 0 0 1 0 3.5)" class="st3 st12">archetype:5</text>
	</g>
	<g>
		<line class="st11" x1="1158" y1="136.5" x2="1188" y2="136.5"/>
	</g>
	<g>
		<path class="st13" d="M1154,144V83h89v61H1154z"/>
	</g>
</g>
</svg>
